<?xml version="1.0" encoding="UTF-8" standalone="no"?>
<svg xmlns="http://www.w3.org/2000/svg" version="1.1" viewBox="0.00 0.00 2379.00 833.00">
  <g stroke-width="2.00" fill="none" stroke-linecap="butt">
    <path stroke="#098e95" stroke-opacity="0.992" vector-effect="non-scaling-stroke" d="   M 2371.56 91.52   Q 2372.25 91.08 2371.59 90.02"></path>
    <path stroke="#098e95" stroke-opacity="0.992" vector-effect="non-scaling-stroke" d="   M 8.10 757.27   L 8.28 755.82"></path>
    <path stroke="#098e95" stroke-opacity="0.992" vector-effect="non-scaling-stroke" d="   M 7.69 705.17   L 7.94 705.11   Q 8.23 705.05 8.30 704.76   Q 8.36 704.50 8.28 704.24"></path>
    <path stroke="#098e95" stroke-opacity="0.992" vector-effect="non-scaling-stroke" d="   M 507.28 824.68   L 506.54 824.97"></path>
    <path stroke="#098e95" stroke-opacity="0.992" vector-effect="non-scaling-stroke" d="   M 425.48 827.53   Q 424.94 827.99 424.28 827.81"></path>
    <path stroke="#098e95" stroke-opacity="0.992" vector-effect="non-scaling-stroke" d="   M 423.45 825.40   Q 423.66 825.84 424.25 826.05   Q 424.69 826.20 424.94 825.81   Q 425.04 825.66 425.04 825.47"></path>
    <path stroke="#098e95" stroke-opacity="0.992" vector-effect="non-scaling-stroke" d="   M 2371.71 669.05   Q 2372.16 667.92 2371.50 668.03"></path>
  </g>
  <path fill="#118184" d="   M 38.29 7.56   L 30.00 8.09   Q 26.70 8.30 29.79 7.10   Q 32.81 5.93 37.11 4.75   Q 37.38 4.68 37.48 4.94   L 38.43 7.35   A 0.16 0.16 0.0 0 1 38.29 7.56   Z"></path>
  <path fill="#118184" d="   M 992.85 4.72   L 1002.92 7.49   A 0.11 0.10 51.6 0 1 1002.90 7.70   L 992.21 7.70   A 0.38 0.38 0.0 0 1 991.84 7.22   L 992.46 4.94   Q 992.55 4.64 992.85 4.72   Z"></path>
  <path fill="#019ba7" fill-opacity="0.980" d="   M 8.17 431.87   Q 8.50 429.06 8.50 427.50   Q 8.55 239.65 8.51 41.50   Q 8.51 39.30 8.36 38.23   Q 8.28 37.67 7.72 37.58   L 4.90 37.11   Q 4.44 37.04 4.60 36.61   L 7.78 28.23   Q 8.05 27.50 8.02 28.28   L 7.78 35.00   Q 7.65 38.81 9.08 35.27   Q 10.16 32.60 10.72 31.31   C 15.49 20.25 24.94 12.39 36.44 8.76   Q 38.02 8.26 40.18 8.38   Q 42.10 8.49 44.00 8.49   Q 699.55 8.51 986.66 8.48   Q 992.27 8.48 996.20 9.67   C 1006.10 12.66 1014.58 18.29 1019.49 27.74   Q 1023.52 35.48 1023.97 44.65   Q 1024.30 51.35 1024.27 63.75   Q 1024.20 92.73 1024.25 213.01   Q 1024.25 222.96 1024.17 233.01   Q 1023.82 279.38 1023.98 325.75   C 1024.00 331.53 1023.71 338.00 1023.72 343.41   Q 1023.82 369.64 1023.42 425.01   Q 1023.40 426.91 1022.46 432.19   C 1018.67 453.49 1002.84 462.33 982.78 462.38   Q 919.81 462.52 694.50 462.35   Q 686.98 462.34 680.00 462.34   Q 287.40 462.11 240.50 462.22   Q 237.91 462.22 227.75 462.18   Q 134.51 461.76 48.99 462.02   Q 18.60 462.12 9.16 434.07   Q 7.88 430.27 7.93 434.28   L 8.03 441.68   Q 8.04 442.97 7.57 441.77   L 4.52 433.99   Q 4.33 433.50 4.79 433.24   Q 6.20 432.43 7.65 432.35   Q 8.11 432.32 8.17 431.87   Z   M 347.83 241.84   Q 330.28 262.87 309.46 280.45   C 291.10 295.96 267.30 307.29 243.51 309.26   Q 200.97 312.78 175.44 279.38   C 153.40 250.55 155.92 211.00 180.30 184.30   Q 189.38 174.35 199.81 169.01   Q 211.99 162.78 226.35 160.92   Q 234.01 159.93 246.28 160.10   Q 267.95 160.40 291.51 160.32   Q 294.40 160.31 296.17 158.94   Q 297.56 157.85 302.38 153.13   Q 315.47 140.28 338.95 116.95   Q 343.56 112.36 347.29 107.27   Q 350.93 102.32 349.24 96.01   Q 346.81 86.97 339.42 84.15   Q 336.12 82.89 325.41 82.88   Q 285.03 82.84 248.25 82.88   Q 236.15 82.90 228.34 83.40   Q 212.84 84.38 199.58 87.52   Q 149.14 99.46 116.27 141.06   C 85.05 180.57 75.48 231.96 90.30 280.14   C 99.05 308.61 117.38 334.73 139.81 352.63   Q 181.21 385.67 235.12 386.25   Q 245.44 386.36 255.04 385.26   C 294.91 380.70 331.58 363.36 361.89 336.89   Q 403.82 300.27 435.12 254.87   Q 447.09 237.51 457.45 223.70   C 470.49 206.34 484.44 190.28 502.32 177.84   Q 527.32 160.45 557.52 160.39   Q 601.53 160.30 616.27 160.28   Q 620.51 160.27 623.38 157.38   Q 656.04 124.51 665.42 115.42   Q 669.33 111.63 672.33 107.10   C 677.06 99.94 676.46 90.81 668.55 86.20   Q 663.66 83.36 658.00 83.18   Q 654.75 83.08 642.75 82.99   Q 604.18 82.70 562.75 82.99   Q 552.15 83.06 540.26 84.20   Q 500.58 88.02 468.75 106.98   C 442.10 122.86 419.58 144.91 401.48 169.98   Q 374.12 207.86 367.10 217.36   Q 357.93 229.74 347.83 241.84   Z   M 806.67 161.18   Q 838.11 165.91 855.64 190.13   Q 872.15 212.94 870.55 239.30   Q 868.82 267.64 848.09 288.09   Q 832.21 303.77 812.49 308.17   Q 805.44 309.75 792.62 310.01   Q 785.71 310.16 766.75 310.21   Q 701.45 310.40 674.56 309.83   Q 667.67 309.68 662.90 314.39   Q 639.91 337.06 619.77 358.02   C 614.34 363.68 611.12 369.48 614.62 377.32   Q 617.21 383.11 624.21 385.25   Q 627.67 386.31 633.76 386.31   Q 743.06 386.23 752.50 386.30   Q 777.56 386.51 801.04 385.26   Q 811.42 384.71 822.81 383.31   C 845.93 380.49 869.31 370.12 887.50 355.98   C 909.79 338.65 927.89 314.98 938.06 288.25   C 953.64 247.35 950.31 202.04 929.80 163.56   Q 913.06 132.15 884.67 111.69   C 863.32 96.29 838.47 87.17 811.97 84.13   Q 793.52 82.01 776.56 83.31   C 772.54 83.62 770.05 86.74 766.97 89.72   Q 757.29 99.05 726.97 129.71   Q 723.28 133.44 721.51 137.03   C 719.20 141.69 719.05 147.82 721.87 152.48   Q 725.63 158.70 733.69 159.47   Q 738.02 159.88 745.82 160.01   Q 768.18 160.37 789.56 160.36   Q 801.25 160.36 806.67 161.18   Z"></path>
  <path fill="#019ba7" fill-opacity="0.980" d="   M 2371.56 91.52   Q 2372.25 91.08 2371.59 90.02   Q 2371.12 88.56 2371.14 87.06   Q 2371.14 86.35 2371.51 86.96   Q 2373.22 89.75 2374.26 92.86   A 0.37 0.36 -10.9 0 1 2373.93 93.34   L 2371.50 93.50   Q 2370.75 93.55 2370.70 94.30   Q 2370.62 95.40 2370.61 98.25   Q 2370.49 189.97 2370.57 248.64   C 2370.57 249.62 2370.96 250.91 2370.85 251.78   Q 2368.78 268.19 2364.03 283.31   C 2356.65 306.80 2342.51 327.31 2324.98 344.48   Q 2297.74 371.15 2261.18 381.15   Q 2241.09 386.64 2219.75 387.04   Q 2186.22 387.66 2166.75 387.38   C 2157.72 387.26 2153.69 382.99 2146.76 375.98   Q 2125.80 354.77 2108.03 337.07   A 1.28 1.27 -43.8 0 0 2106.27 337.04   Q 2099.86 342.89 2092.81 349.02   Q 2059.24 378.21 2015.46 384.90   Q 2007.22 386.16 1995.55 386.72   Q 1963.59 388.25 1933.52 386.67   C 1929.58 386.46 1926.83 383.40 1923.60 380.15   Q 1889.22 345.52 1882.19 338.82   Q 1881.05 337.73 1880.18 337.22   Q 1879.32 336.71 1878.60 337.40   Q 1871.13 344.58 1864.58 350.07   C 1842.52 368.56 1814.98 381.46 1786.28 384.96   Q 1765.06 387.55 1743.00 387.59   Q 1705.80 387.66 1670.26 387.06   C 1667.77 387.02 1664.38 386.99 1662.01 386.22   C 1656.14 384.32 1650.63 379.34 1650.05 372.96   C 1649.42 366.06 1654.10 359.86 1658.65 355.21   Q 1674.45 339.06 1695.36 318.54   C 1700.50 313.49 1703.82 309.25 1711.75 309.62   C 1732.65 310.59 1754.02 310.56 1773.55 308.59   C 1801.48 305.79 1824.29 287.71 1834.43 261.71   Q 1843.94 237.31 1836.09 212.65   C 1830.73 195.78 1819.02 180.46 1803.58 171.35   C 1776.12 155.14 1742.03 157.47 1715.16 173.44   C 1701.09 181.80 1688.29 193.60 1677.32 206.08   Q 1667.32 217.45 1653.31 236.07   Q 1641.19 252.16 1628.97 268.99   Q 1621.48 279.29 1616.86 284.89   Q 1592.52 314.35 1568.96 334.94   C 1534.74 364.83 1492.39 384.14 1447.19 386.85   Q 1412.76 388.91 1377.62 386.82   Q 1371.28 386.44 1367.34 383.02   C 1363.31 379.50 1362.45 368.00 1362.45 363.02   Q 1362.49 264.31 1362.31 161.89   A 1.16 1.15 0.3 0 0 1361.16 160.74   Q 1267.26 160.27 1261.25 160.27   Q 1254.20 160.27 1242.26 161.26   C 1211.79 163.78 1187.27 185.33 1178.46 214.01   Q 1170.56 239.73 1182.11 264.79   Q 1199.11 301.68 1239.49 308.36   Q 1246.94 309.60 1262.59 309.92   Q 1272.72 310.13 1312.06 310.59   Q 1325.98 310.76 1326.35 324.50   Q 1326.58 332.78 1319.99 339.25   Q 1307.30 351.71 1275.61 383.86   C 1272.06 387.46 1263.20 386.97 1258.09 387.06   Q 1236.83 387.40 1216.48 383.04   Q 1180.69 375.36 1152.69 351.64   Q 1138.93 340.00 1128.24 326.13   Q 1105.56 296.72 1099.94 259.61   Q 1094.24 221.96 1105.61 187.10   C 1120.00 142.98 1153.02 108.32 1196.58 92.33   Q 1212.74 86.40 1228.77 84.78   Q 1239.22 83.72 1256.25 83.32   Q 1266.44 83.09 1332.00 83.11   Q 1373.95 83.13 1415.90 83.32   C 1423.84 83.36 1433.12 82.76 1437.84 90.70   Q 1439.13 92.85 1439.33 97.71   Q 1439.58 103.48 1439.59 106.54   Q 1440.01 249.66 1439.98 307.51   A 1.36 1.36 0.0 0 0 1441.32 308.87   Q 1452.23 309.01 1462.74 306.45   C 1484.73 301.08 1504.89 288.60 1521.32 273.29   C 1546.65 249.69 1568.17 221.56 1589.35 191.37   Q 1612.55 158.33 1639.79 133.30   C 1661.27 113.56 1685.89 98.65 1713.76 90.29   C 1745.07 80.90 1778.90 80.18 1810.13 89.73   C 1846.39 100.81 1877.08 125.18 1896.38 157.64   Q 1915.73 190.17 1916.90 228.99   Q 1917.52 249.37 1913.73 267.09   Q 1909.79 285.52 1900.11 306.79   Q 1899.87 307.32 1899.74 307.60   A 1.76 1.76 0.0 0 0 1901.35 310.08   Q 1937.81 310.07 1960.26 310.24   Q 1977.82 310.38 1991.79 309.28   Q 2000.39 308.61 2007.97 307.10   C 2034.23 301.89 2055.25 282.14 2063.34 256.85   Q 2065.18 251.10 2066.18 241.78   Q 2066.98 234.41 2066.93 223.83   Q 2066.74 180.55 2066.85 167.90   Q 2066.90 162.81 2066.61 154.25   Q 2066.31 145.69 2066.55 140.53   Q 2066.71 136.89 2069.64 134.13   Q 2088.09 116.78 2114.58 90.58   C 2119.84 85.37 2125.68 81.54 2133.30 83.70   Q 2140.14 85.64 2143.05 92.08   Q 2143.99 94.14 2143.97 100.54   Q 2143.85 162.62 2144.23 215.25   C 2144.33 228.98 2144.57 243.29 2142.99 255.43   Q 2139.87 279.43 2129.31 301.35   Q 2126.22 307.76 2126.01 308.21   A 1.08 1.08 0.0 0 0 2126.96 309.76   C 2132.97 309.88 2137.12 310.08 2141.02 310.08   Q 2186.99 310.15 2202.00 310.07   Q 2210.56 310.02 2220.36 309.30   Q 2231.45 308.49 2238.47 306.63   Q 2266.60 299.16 2282.55 274.09   Q 2289.56 263.08 2291.87 251.14   C 2293.58 242.31 2294.39 232.35 2294.44 222.59   Q 2294.62 191.31 2294.15 142.00   Q 2294.12 139.20 2295.71 137.21   Q 2297.88 134.50 2300.38 131.88   Q 2320.77 110.54 2341.86 90.36   C 2346.65 85.77 2351.72 82.59 2358.69 83.36   C 2364.58 84.01 2367.93 87.65 2370.37 92.85   Q 2370.63 93.39 2371.05 92.98   Q 2371.50 92.56 2371.56 91.52   Z"></path>
  <path fill="#118184" d="   M 2371.56 91.52   L 2371.59 90.02   Q 2372.25 91.08 2371.56 91.52   Z"></path>
  <path fill="#118184" d="   M 2371.48 251.80   L 2374.54 251.78   A 0.13 0.13 0.0 0 1 2374.67 251.93   L 2371.34 272.24   A 0.13 0.13 0.0 0 1 2371.12 272.32   L 2371.02 272.23   A 0.13 0.13 0.0 0 1 2370.98 272.13   L 2371.35 251.93   A 0.13 0.13 0.0 0 1 2371.48 251.80   Z"></path>
  <rect fill="#019ba7" fill-opacity="0.980" x="-38.85" y="-38.82" transform="translate(2060.36,499.25) rotate(-0.5)" width="77.70" height="77.64" rx="16.18"></rect>
  <rect fill="#c20852" x="-38.55" y="-38.57" transform="translate(2196.62,499.22) rotate(0.4)" width="77.10" height="77.14" rx="15.35"></rect>
  <rect fill="#019ba7" fill-opacity="0.980" x="-38.39" y="-38.39" transform="translate(1969.60,499.27) rotate(0.2)" width="76.78" height="76.78" rx="13.95"></rect>
  <rect fill="#118184" x="8.34" y="529.00" width="1847.80" height="8.42" rx="1.75"></rect>
  <path fill="#019ba7" fill-opacity="0.980" d="   M 8.10 757.27   L 8.28 755.82   Q 8.77 730.84 8.32 705.92   Q 8.31 704.97 7.69 705.17   L 7.94 705.11   Q 8.23 705.05 8.30 704.76   Q 8.36 704.50 8.28 704.24   Q 9.41 700.89 10.60 697.59   Q 16.65 680.78 31.94 672.92   Q 41.80 667.85 55.23 667.45   Q 73.85 666.89 99.79 666.79   A 1.37 1.37 0.0 0 0 101.14 665.58   Q 101.40 663.31 101.47 660.25   Q 101.77 646.94 101.33 634.11   Q 101.16 628.88 104.24 624.69   Q 104.96 623.70 110.85 617.88   Q 117.32 611.47 125.50 604.75   Q 129.07 601.82 132.82 604.54   C 134.32 605.63 134.67 607.26 134.67 609.24   Q 134.67 657.85 134.65 790.50   A 2.89 2.88 89.5 0 1 131.82 793.39   Q 100.03 793.92 66.01 794.08   Q 55.16 794.13 44.25 792.15   C 27.90 789.19 15.49 777.48 10.06 761.96   Q 9.09 759.18 8.10 757.27   Z   M 89.30 697.49   Q 86.63 699.43 84.29 699.43   Q 57.38 699.38 55.53 699.48   C 45.56 700.03 41.55 706.67 41.22 715.76   Q 40.64 731.45 41.00 743.50   Q 41.14 747.95 42.29 751.72   C 43.90 757.00 47.51 759.28 53.04 760.16   Q 56.96 760.78 60.00 760.87   Q 80.31 761.46 96.88 760.88   C 99.80 760.77 102.08 760.96 102.09 757.50   Q 102.18 697.28 102.11 693.58   Q 102.06 691.31 101.26 688.75   A 1.64 1.63 -22.7 0 0 98.94 687.80   Q 97.39 688.61 95.99 690.48   Q 92.46 695.20 89.30 697.49   Z"></path>
  <path fill="#019ba7" fill-opacity="0.980" d="   M 1376.76 760.39   A 1.53 1.52 82.5 0 0 1377.92 758.87   Q 1377.36 732.78 1377.59 700.52   Q 1377.63 695.00 1377.35 684.00   Q 1377.03 671.69 1377.39 667.49   Q 1378.43 655.18 1387.80 647.29   Q 1393.17 642.78 1398.44 638.69   Q 1400.39 637.18 1402.59 636.07   C 1409.59 632.50 1410.65 640.59 1410.65 645.41   Q 1410.63 717.70 1410.63 789.60   Q 1410.63 793.62 1406.61 793.64   Q 1349.80 793.93 1348.50 793.96   Q 1337.63 794.16 1326.52 793.28   Q 1320.65 792.82 1314.10 790.93   Q 1305.59 788.48 1298.16 781.35   C 1287.36 770.99 1282.75 756.26 1282.79 741.50   Q 1282.89 698.58 1282.62 669.03   Q 1282.57 662.96 1285.86 656.27   Q 1288.04 651.85 1294.17 646.60   Q 1301.13 640.64 1306.20 636.95   C 1308.60 635.21 1313.71 633.54 1315.15 637.36   Q 1316.11 639.91 1316.13 644.76   Q 1316.44 712.37 1316.60 741.43   Q 1316.64 749.48 1318.09 752.41   Q 1320.50 757.29 1325.53 759.50   Q 1328.06 760.62 1335.12 760.59   Q 1355.19 760.51 1375.25 760.52   Q 1376.24 760.52 1376.76 760.39   Z"></path>
  <path fill="#019ba7" fill-opacity="0.980" d="   M 301.53 698.77   C 305.57 698.93 308.50 696.63 308.10 692.47   Q 308.00 691.38 305.84 681.62   Q 304.45 675.31 302.19 672.95   Q 298.28 668.88 292.75 668.86   Q 252.04 668.70 224.83 668.37   Q 222.14 668.34 220.01 666.81   Q 216.33 664.16 218.98 659.97   Q 227.30 646.79 239.47 637.70   Q 241.48 636.20 244.88 636.10   Q 267.24 635.41 289.77 635.80   C 302.03 636.02 312.83 638.50 322.19 645.92   Q 335.48 656.45 338.60 674.26   Q 339.93 681.88 340.07 690.59   Q 340.42 714.32 339.68 788.25   Q 339.64 791.67 337.25 792.97   Q 335.98 793.66 332.59 793.68   Q 306.88 793.77 271.50 793.93   Q 266.82 793.95 254.00 792.99   Q 232.21 791.35 220.34 773.16   C 209.11 755.97 208.74 734.53 221.10 718.08   Q 230.89 705.04 247.39 700.32   Q 254.16 698.38 267.21 698.20   Q 282.12 697.99 301.53 698.77   Z   M 306.66 760.88   A 0.80 0.79 -7.4 0 0 307.24 760.13   Q 307.42 745.30 307.26 721.02   Q 307.25 719.35 306.34 717.85   A 0.43 0.43 0.0 0 0 305.71 717.74   C 300.64 721.77 297.98 727.82 291.05 729.99   Q 288.53 730.78 281.46 730.83   Q 272.99 730.90 260.61 731.48   C 253.13 731.83 247.53 734.26 246.16 742.23   Q 245.33 747.02 246.81 751.82   C 248.67 757.86 253.04 760.51 259.37 760.64   Q 284.12 761.15 303.75 761.21   Q 305.49 761.22 306.66 760.88   Z"></path>
  <path fill="#019ba7" fill-opacity="0.980" d="   M 507.28 824.68   L 506.54 824.97   L 426.80 824.67   Q 426.10 824.67 425.95 825.36   L 425.48 827.53   Q 424.94 827.99 424.28 827.81   Q 421.90 827.07 420.22 825.57   Q 419.75 825.15 420.38 825.19   L 423.45 825.40   Q 423.66 825.84 424.25 826.05   Q 424.69 826.20 424.94 825.81   Q 425.04 825.66 425.04 825.47   Q 425.28 825.40 425.46 825.24   Q 425.81 824.93 425.44 824.66   C 424.61 824.04 423.49 823.52 422.86 822.83   Q 420.43 820.21 422.77 817.02   Q 431.89 804.60 443.27 794.77   Q 445.52 792.82 448.52 791.96   Q 450.58 791.36 454.30 791.48   Q 477.97 792.24 498.51 791.51   Q 506.78 791.22 509.33 783.30   Q 510.04 781.11 511.58 770.15   Q 512.06 766.67 511.01 764.98   Q 509.33 762.28 505.65 762.34   Q 486.16 762.65 470.02 762.85   C 451.35 763.07 433.98 756.71 424.04 740.12   C 417.68 729.50 417.01 715.65 416.86 701.75   Q 416.85 700.92 416.67 671.00   Q 416.67 669.63 416.94 664.01   Q 417.21 658.34 420.38 654.41   Q 425.01 648.69 432.87 641.88   C 436.21 638.98 440.86 635.80 445.54 635.79   Q 450.27 635.77 450.25 640.54   Q 450.11 674.94 450.17 711.11   Q 450.18 719.67 451.68 722.69   Q 454.70 728.72 463.51 728.75   Q 492.91 728.83 509.15 728.82   Q 511.06 728.82 511.07 726.91   Q 511.12 715.42 511.09 662.94   Q 511.08 659.06 514.97 654.46   Q 523.16 644.77 534.41 636.66   Q 536.55 635.12 538.98 635.61   Q 543.92 636.62 544.58 641.92   Q 545.76 651.29 545.81 656.62   Q 546.21 698.37 545.63 771.01   Q 545.62 772.34 544.79 779.25   Q 543.03 793.90 536.83 803.86   C 529.68 815.36 520.05 821.15 507.28 824.68   Z"></path>
  <path fill="#019ba7" fill-opacity="0.980" d="   M 922.89 669.49   A 2.34 1.44 -31.6 0 0 922.15 670.95   Q 922.27 732.59 922.14 788.75   Q 922.14 791.74 920.20 792.93   Q 919.10 793.60 916.21 793.64   Q 908.43 793.76 895.98 793.72   C 891.86 793.71 889.35 792.57 889.35 788.13   Q 889.34 725.08 889.32 662.03   C 889.32 659.39 892.20 655.27 894.94 652.19   C 900.63 645.79 905.30 640.35 912.21 637.14   Q 914.27 636.19 918.35 636.11   Q 952.73 635.50 965.52 635.61   C 974.51 635.69 984.94 637.48 992.74 641.34   Q 1009.15 649.45 1014.48 668.27   Q 1015.92 673.35 1016.35 680.82   Q 1017.01 692.25 1017.01 702.00   Q 1016.95 769.74 1016.69 788.50   Q 1016.64 791.92 1014.01 793.10   Q 1012.73 793.67 1009.32 793.70   Q 1000.29 793.77 991.34 793.72   Q 987.90 793.71 986.41 792.81   C 984.06 791.40 983.57 789.13 983.58 786.31   Q 983.59 705.11 983.58 686.00   Q 983.58 683.49 982.94 680.49   C 981.45 673.52 976.58 668.98 969.23 668.76   Q 956.63 668.37 924.86 668.96   Q 923.41 668.99 922.89 669.49   Z"></path>
  <path fill="#019ba7" fill-opacity="0.980" d="   M 1177.23 736.65   Q 1172.58 731.80 1164.37 731.50   Q 1159.97 731.35 1144.94 731.42   Q 1130.60 731.50 1125.75 730.48   C 1103.24 725.74 1086.37 707.13 1086.07 684.05   C 1085.83 665.82 1095.29 650.42 1110.90 641.12   C 1117.09 637.43 1125.71 636.15 1132.76 635.97   Q 1165.60 635.10 1194.14 636.41   C 1197.77 636.58 1202.16 637.26 1201.51 642.23   Q 1201.25 644.28 1198.82 647.57   Q 1194.27 653.76 1188.59 660.09   Q 1180.71 668.85 1168.75 668.85   Q 1148.63 668.84 1136.25 669.12   Q 1130.24 669.25 1127.45 670.19   Q 1122.51 671.86 1121.15 677.35   C 1119.14 685.45 1121.03 694.88 1129.99 697.13   Q 1133.91 698.11 1138.80 698.09   Q 1150.92 698.04 1166.06 698.24   Q 1187.04 698.52 1201.22 713.56   Q 1212.74 725.78 1213.94 743.16   C 1215.13 760.30 1207.21 776.02 1193.10 785.84   Q 1185.36 791.22 1176.23 792.68   Q 1168.62 793.89 1159.74 793.90   Q 1129.63 793.93 1101.50 793.48   Q 1095.51 793.38 1093.18 792.02   Q 1092.76 791.77 1092.54 791.33   Q 1090.98 788.10 1093.25 784.97   Q 1096.20 780.91 1100.69 775.78   Q 1107.03 768.56 1108.70 767.11   Q 1116.21 760.59 1126.76 760.58   Q 1135.94 760.58 1165.53 760.55   Q 1178.17 760.54 1180.34 747.82   Q 1181.49 741.10 1177.23 736.65   Z"></path>
  <path fill="#019ba7" fill-opacity="0.980" d="   M 1531.21 669.36   C 1526.50 669.89 1523.24 673.47 1522.07 678.33   Q 1521.18 682.06 1521.16 689.60   Q 1520.98 755.79 1520.94 789.52   C 1520.94 793.94 1518.04 793.30 1514.90 793.35   Q 1502.04 793.57 1493.25 793.41   Q 1487.98 793.32 1487.94 788.37   Q 1487.31 710.70 1487.22 694.34   Q 1487.16 684.36 1488.73 674.50   C 1491.94 654.34 1506.74 639.82 1527.02 636.77   Q 1535.14 635.55 1545.26 635.57   Q 1561.74 635.59 1578.75 636.68   C 1583.62 637.00 1585.88 641.31 1582.84 645.36   Q 1576.13 654.30 1567.43 663.18   Q 1563.84 666.84 1559.54 668.15   Q 1556.90 668.95 1550.51 668.77   Q 1539.19 668.46 1531.21 669.36   Z"></path>
  <path fill="#019ba7" fill-opacity="0.980" d="   M 1725.40 690.52   Q 1722.80 677.77 1722.64 677.32   Q 1720.74 671.99 1716.16 669.86   Q 1713.53 668.63 1707.15 668.64   Q 1674.95 668.66 1642.75 668.70   Q 1639.97 668.71 1638.72 667.89   C 1635.42 665.74 1635.45 660.67 1637.60 657.80   Q 1642.46 651.31 1649.08 644.58   C 1653.11 640.50 1658.28 636.37 1664.31 636.15   Q 1684.51 635.42 1702.87 635.65   Q 1716.91 635.83 1722.76 637.20   C 1746.85 642.82 1757.34 665.10 1757.80 688.51   Q 1758.48 723.24 1757.77 787.32   Q 1757.73 791.19 1755.28 792.78   Q 1753.93 793.66 1749.99 793.69   Q 1721.07 793.93 1693.02 793.94   Q 1677.47 793.94 1671.16 793.29   Q 1653.42 791.45 1641.56 777.98   Q 1633.15 768.42 1630.73 757.21   Q 1626.88 739.41 1634.74 724.31   C 1643.13 708.18 1659.05 698.42 1677.29 698.35   Q 1708.22 698.22 1718.82 698.75   Q 1723.15 698.96 1724.97 696.15   Q 1726.17 694.29 1725.40 690.52   Z   M 1720.50 718.53   Q 1718.53 721.47 1713.51 725.73   C 1711.26 727.64 1709.50 729.46 1706.67 730.45   Q 1704.19 731.32 1699.83 731.11   C 1691.21 730.70 1683.47 730.73 1675.60 731.59   C 1670.42 732.16 1666.32 734.27 1664.50 739.02   Q 1662.11 745.29 1664.28 752.03   Q 1667.03 760.51 1676.79 760.74   Q 1698.56 761.24 1723.14 761.25   A 1.65 1.65 0.0 0 0 1724.79 759.67   Q 1725.67 738.47 1724.42 717.80   Q 1724.36 716.83 1724.15 716.03   A 0.80 0.80 0.0 0 0 1722.80 715.68   Q 1721.50 717.04 1720.50 718.53   Z"></path>
  <path fill="#019ba7" fill-opacity="0.980" d="   M 1868.56 669.14   Q 1867.91 669.35 1867.92 670.03   Q 1868.05 728.34 1867.91 785.76   Q 1867.89 792.05 1862.59 793.65   Q 1861.97 793.83 1854.33 793.88   Q 1847.40 793.93 1844.53 793.92   Q 1838.95 793.90 1836.96 792.95   Q 1833.38 791.26 1833.37 785.03   Q 1833.27 737.51 1833.36 666.81   Q 1833.36 660.97 1836.94 656.20   Q 1844.83 645.68 1855.45 637.45   C 1856.81 636.39 1858.94 636.43 1860.80 636.33   Q 1887.64 634.94 1917.59 636.16   Q 1941.30 637.12 1954.41 656.78   Q 1960.51 665.92 1961.59 675.54   Q 1962.58 684.49 1962.62 696.04   Q 1962.75 735.88 1961.70 788.55   C 1961.61 793.13 1959.04 793.67 1954.94 793.70   Q 1944.46 793.77 1934.01 793.70   C 1929.07 793.66 1928.54 790.94 1928.53 786.57   Q 1928.46 739.44 1928.53 692.31   C 1928.55 681.72 1929.58 672.87 1919.41 669.61   Q 1916.39 668.64 1908.52 668.62   Q 1893.36 668.60 1871.27 668.75   Q 1869.70 668.76 1868.56 669.14   Z"></path>
  <path fill="#019ba7" fill-opacity="0.980" d="   M 2074.97 674.83   C 2072.45 678.63 2072.26 684.74 2072.18 689.32   Q 2071.47 730.61 2072.79 747.61   Q 2073.47 756.51 2080.26 759.33   Q 2083.04 760.48 2092.52 760.55   Q 2125.18 760.76 2157.82 761.16   C 2161.64 761.21 2163.71 761.04 2166.27 763.02   C 2169.16 765.25 2166.39 769.75 2164.50 772.26   Q 2160.49 777.60 2156.25 782.73   Q 2150.03 790.25 2141.90 792.82   Q 2137.66 794.16 2125.12 793.94   Q 2110.23 793.67 2088.26 793.85   Q 2079.99 793.92 2070.98 791.15   Q 2062.24 788.46 2055.81 783.05   Q 2043.49 772.69 2040.89 756.11   Q 2039.43 746.79 2039.23 736.25   Q 2038.90 719.61 2039.16 685.52   Q 2039.24 675.80 2042.69 665.69   Q 2049.37 646.12 2068.24 639.48   Q 2078.82 635.76 2091.28 635.73   Q 2138.78 635.65 2160.27 636.30   Q 2163.80 636.40 2165.70 637.50   C 2168.82 639.29 2166.67 643.66 2164.87 645.89   Q 2158.34 653.98 2152.61 660.35   Q 2145.68 668.04 2135.50 668.98   Q 2132.23 669.28 2121.00 668.86   Q 2106.28 668.30 2087.01 669.02   C 2082.46 669.19 2077.58 670.89 2074.97 674.83   Z"></path>
  <path fill="#019ba7" fill-opacity="0.980" d="   M 2371.71 669.05   Q 2372.16 667.92 2371.50 668.03   L 2371.12 661.91   Q 2371.12 661.88 2371.10 661.88   Q 2371.10 661.89 2371.09 661.89   Q 2371.08 661.89 2371.08 661.91   Q 2373.01 667.36 2374.23 670.96   Q 2374.41 671.51 2373.84 671.55   L 2371.20 671.71   A 0.51 0.51 0.0 0 0 2370.72 672.21   Q 2370.41 684.67 2370.67 689.11   Q 2370.93 693.28 2369.91 696.28   Q 2368.08 701.70 2366.37 705.11   Q 2355.69 726.32 2332.12 730.11   Q 2325.74 731.14 2318.06 731.30   Q 2301.42 731.65 2285.78 731.17   Q 2279.65 730.99 2277.61 735.21   Q 2276.57 737.36 2277.08 742.83   Q 2277.59 748.32 2278.05 750.51   Q 2280.22 760.76 2290.51 760.75   Q 2325.18 760.72 2357.25 760.79   Q 2361.29 760.80 2363.79 761.73   C 2369.65 763.91 2365.70 769.75 2362.91 773.18   Q 2356.62 780.91 2352.58 785.33   Q 2347.52 790.86 2340.80 792.97   Q 2336.96 794.17 2327.23 793.96   Q 2313.22 793.65 2294.51 793.90   Q 2285.65 794.02 2276.54 791.28   C 2255.95 785.09 2244.84 768.24 2244.41 747.32   Q 2243.77 716.43 2243.94 686.52   Q 2243.99 678.46 2245.57 671.62   Q 2249.08 656.40 2259.87 647.04   C 2269.29 638.86 2280.70 636.43 2293.06 635.72   Q 2305.22 635.02 2327.36 635.96   C 2348.53 636.87 2364.21 650.90 2370.34 670.98   A 0.40 0.40 0.0 0 0 2371.06 671.08   Q 2371.62 670.22 2371.71 669.05   Z   M 2302.50 699.04   Q 2304.73 698.95 2318.81 698.40   Q 2327.11 698.08 2329.96 696.75   C 2335.79 694.03 2339.07 686.70 2337.68 680.14   Q 2335.66 670.59 2326.03 669.23   Q 2320.58 668.46 2301.27 667.91   Q 2295.41 667.75 2289.48 668.93   Q 2282.37 670.36 2279.27 675.47   Q 2277.41 678.53 2277.12 686.32   Q 2276.66 698.43 2277.05 709.42   A 1.88 1.88 0.0 0 0 2279.39 711.18   Q 2279.92 711.04 2280.88 709.88   Q 2281.84 708.72 2285.73 703.98   Q 2289.23 699.70 2294.77 699.40   Q 2298.65 699.19 2302.50 699.04   Z"></path>
  <rect fill="#019ba7" fill-opacity="0.980" x="-16.94" y="-78.80" transform="translate(795.68,714.86) rotate(-0.1)" width="33.88" height="157.60" rx="5.07"></rect>
  <path fill="#118184" d="   M 2371.71 669.05   Q 2371.32 669.12 2371.50 668.03   Q 2372.16 667.92 2371.71 669.05   Z"></path>
  <path fill="#118184" d="   M 2373.96 693.74   A 0.19 0.19 0.0 0 1 2374.11 693.97   L 2374.09 694.12   A 10.51 1.01 -79.4 0 1 2371.16 704.27   L 2370.94 704.23   A 10.51 1.01 -79.4 0 1 2371.88 693.71   L 2371.91 693.55   A 0.19 0.19 0.0 0 1 2372.13 693.40   L 2373.96 693.74   Z"></path>
  <path fill="#118184" d="   M 8.28 704.24   Q 8.36 704.50 8.30 704.76   Q 8.23 705.05 7.94 705.11   L 7.69 705.17   L 4.98 704.47   Q 4.46 704.33 4.60 703.81   Q 5.87 698.98 7.78 694.19   Q 8.06 693.49 8.04 694.24   L 7.79 704.27   Q 7.78 704.44 7.91 704.32   Q 8.05 704.17 8.28 704.24   Z"></path>
  <path fill="#118184" d="   M 8.28 755.82   L 8.10 757.27   L 8.01 766.88   Q 8.01 767.46 7.78 766.93   Q 5.81 762.35 4.40 757.32   Q 4.26 756.82 4.76 756.69   L 8.28 755.82   Z"></path>
  <path fill="#118184" d="   M 507.28 824.68   Q 507.53 825.40 507.74 825.42   Q 512.50 825.82 517.25 825.01   Q 518.66 824.76 517.32 825.29   Q 513.52 826.79 507.65 828.43   Q 507.14 828.57 507.05 828.05   L 506.54 824.97   L 507.28 824.68   Z"></path>
  <path fill="#118184" d="   M 425.04 825.47   Q 425.04 825.66 424.94 825.81   Q 424.69 826.20 424.25 826.05   Q 423.66 825.84 423.45 825.40   L 425.04 825.47   Z"></path>
  <path fill="#118184" d="   M 425.48 827.53   Q 425.62 828.27 425.26 828.30   Q 424.66 828.36 424.28 827.81   Q 424.94 827.99 425.48 827.53   Z"></path>
</svg>
